<?xml version="1.0" standalone="no"?>
<!DOCTYPE svg PUBLIC "-//W3C//DTD SVG 20010904//EN"
 "http://www.w3.org/TR/2001/REC-SVG-20010904/DTD/svg10.dtd">
<svg version="1.0" xmlns="http://www.w3.org/2000/svg"
 width="300.000000pt" height="169.000000pt" viewBox="0 0 300.000000 169.000000"
 preserveAspectRatio="xMidYMid meet">
<metadata>
Created by potrace 1.10, written by Peter Selinger 2001-2011
</metadata>
<g transform="translate(0.000000,169.000000) scale(0.100000,-0.100000)"
fill="#000000" stroke="none">
<path d="M2705 1663 c3 -16 9 -77 15 -138 29 -319 40 -435 46 -478 l6 -48 -36
7 c-73 13 -158 -39 -191 -119 -19 -46 -6 -84 38 -105 61 -29 167 21 202 95 19
40 20 18 -14 383 -38 396 -43 430 -57 430 -9 0 -12 -9 -9 -27z m53 -731 c3
-28 -3 -40 -37 -72 -65 -62 -141 -63 -141 -2 0 57 73 114 140 109 32 -2 35 -5
38 -35z"/>
<path d="M2823 1383 c32 -2 81 -2 110 0 29 2 3 3 -58 3 -60 0 -84 -1 -52 -3z"/>
<path d="M2153 1348 c11 -61 67 -349 73 -373 6 -23 3 -25 -27 -25 -38 -1 -64
-17 -91 -57 -22 -34 -23 -57 -2 -77 25 -26 69 -19 109 15 31 27 35 37 35 78
-1 25 -14 108 -29 184 l-28 137 22 0 c33 0 88 -41 107 -80 20 -39 23 -88 9
-138 -5 -17 -6 -32 -1 -32 11 0 18 22 26 82 4 29 12 56 18 60 7 5 5 8 -4 8 -9
0 -22 16 -29 35 -8 24 -35 53 -81 90 -46 37 -73 66 -81 90 -16 44 -33 46 -26
3z m57 -454 c0 -20 -20 -39 -48 -48 -27 -9 -31 18 -5 46 20 22 53 24 53 2z"/>
<path d="M2445 1335 c-54 -17 -33 -18 30 -1 28 8 41 14 30 14 -11 0 -38 -5
-60 -13z"/>
<path d="M2808 1323 c17 -2 47 -2 65 0 17 2 3 4 -33 4 -36 0 -50 -2 -32 -4z"/>
<path d="M2332 1303 c-24 -8 -41 -17 -39 -19 2 -2 28 5 58 15 30 11 47 20 39
19 -8 0 -34 -6 -58 -15z"/>
<path d="M1950 1130 c-79 -44 -200 -121 -200 -127 0 -3 12 3 28 13 15 10 68
42 117 71 106 62 122 72 115 72 -3 0 -30 -13 -60 -29z"/>
<path d="M2563 1153 c20 -2 54 -2 75 0 20 2 3 4 -38 4 -41 0 -58 -2 -37 -4z"/>
<path d="M2608 1103 c17 -2 47 -2 65 0 17 2 3 4 -33 4 -36 0 -50 -2 -32 -4z"/>
<path d="M2875 1079 c51 -10 92 -10 50 1 -16 4 -43 8 -60 8 -25 0 -24 -2 10
-9z"/>
<path d="M1806 1010 c-43 -28 -51 -30 -82 -20 -18 6 -36 16 -39 21 -4 5 -10 9
-14 9 -5 0 7 -32 26 -71 18 -38 31 -74 28 -80 -4 -5 -2 -9 3 -9 4 0 16 -16 25
-36 17 -35 17 -36 -3 -41 -25 -7 -52 -55 -44 -77 8 -22 47 -20 67 2 21 23 21
52 2 98 -8 20 -12 41 -8 47 3 5 2 7 -4 4 -6 -4 -15 5 -21 18 -11 23 -10 25 17
25 41 0 81 -35 81 -71 0 -31 6 -35 30 -19 13 8 12 10 -2 10 -10 0 -18 7 -18
15 0 19 -39 95 -62 122 l-20 21 46 27 c40 23 54 35 43 35 -2 0 -25 -14 -51
-30z m-28 -66 c12 -8 22 -18 22 -23 0 -15 -68 11 -87 32 -18 20 -17 20 12 13
17 -4 40 -14 53 -22z"/>
<path d="M1898 964 c-38 -19 -68 -37 -68 -39 0 -5 139 62 149 71 14 13 -23 -2
-81 -32z"/>
<path d="M1547 865 c-70 -52 -127 -97 -127 -100 0 -5 223 157 250 182 36 33
-5 6 -123 -82z"/>
<path d="M2457 953 c18 -2 50 -2 70 0 21 2 7 4 -32 4 -38 0 -55 -2 -38 -4z"/>
<path d="M1539 830 c-68 -49 -126 -86 -130 -82 -4 4 -17 39 -29 77 -13 39 -25
64 -27 58 -3 -7 10 -56 27 -108 18 -53 29 -103 26 -111 -3 -8 -2 -13 3 -10 5
3 14 -7 19 -23 10 -27 8 -29 -18 -35 -48 -9 -73 -85 -34 -100 19 -7 42 5 69
34 18 20 19 24 3 78 -8 31 -20 71 -26 88 l-10 32 121 88 c133 96 144 104 135
104 -3 0 -62 -40 -129 -90z"/>
<path d="M1997 868 c-32 -11 -57 -22 -54 -24 2 -2 35 7 73 20 38 14 62 24 54
24 -8 0 -41 -9 -73 -20z"/>
<path d="M1645 823 c-38 -24 -60 -33 -63 -25 -7 21 -20 13 -18 -12 0 -13 4
-22 7 -20 4 2 24 -31 45 -72 l39 -76 12 28 c24 57 11 93 -28 73 -12 -6 -20 0
-32 26 l-16 34 59 37 c52 32 68 44 57 44 -1 0 -29 -17 -62 -37z m13 -154 l-3
-24 -13 23 c-7 12 -10 27 -6 33 10 17 26 -6 22 -32z"/>
<path d="M2298 763 c39 -2 105 -2 145 0 39 1 7 3 -73 3 -80 0 -112 -2 -72 -3z"/>
<path d="M1497 726 c-59 -41 -73 -55 -29 -30 33 19 91 63 82 63 -3 0 -27 -15
-53 -33z"/>
<path d="M1520 714 c-60 -40 -94 -69 -45 -39 82 50 115 75 102 75 -1 0 -27
-16 -57 -36z"/>
<path d="M2725 719 c39 -10 74 -17 80 -16 11 4 -118 37 -137 36 -7 0 19 -9 57
-20z"/>
<path d="M1261 650 c-58 -43 -106 -86 -107 -94 -1 -10 2 -13 9 -9 38 23 219
157 224 167 4 6 -3 3 -14 -6 -27 -24 -40 -23 -18 2 28 31 18 24 -94 -60z m74
31 c-26 -23 -167 -122 -170 -119 -5 5 157 126 170 127 6 1 6 -2 0 -8z"/>
<path d="M2418 713 c18 -2 45 -2 60 0 15 2 0 4 -33 4 -33 0 -45 -2 -27 -4z"/>
<path d="M1945 675 c-54 -17 -33 -18 30 -1 28 8 41 14 30 14 -11 0 -38 -5 -60
-13z"/>
<path d="M1543 624 c-35 -19 -63 -37 -63 -40 0 -6 109 53 125 68 17 15 0 8
-62 -28z"/>
<path d="M1817 638 c-32 -11 -57 -22 -54 -24 2 -2 35 7 73 20 38 14 62 24 54
24 -8 0 -41 -9 -73 -20z"/>
<path d="M2835 630 c79 -35 164 -67 160 -60 -6 9 -159 70 -172 69 -4 0 1 -4
12 -9z"/>
<path d="M1260 564 c-36 -24 -65 -49 -65 -56 0 -6 -6 -13 -14 -16 -9 -3 -11 0
-6 9 5 8 4 11 -1 6 -5 -5 -10 -13 -10 -18 -1 -5 -2 -12 -3 -16 -1 -5 -15 20
-31 55 -22 47 -33 61 -43 55 -45 -27 -137 -97 -137 -104 0 -11 29 -88 41 -112
5 -10 7 -23 3 -30 -4 -7 -3 -9 1 -4 5 4 16 -10 25 -30 16 -37 16 -38 -7 -57
-31 -24 -28 -70 4 -74 33 -5 50 36 35 84 -9 30 -8 35 4 30 8 -3 21 -3 30 1 23
9 -5 24 -32 17 -18 -5 -24 1 -35 33 -7 21 -13 46 -13 55 1 10 -2 15 -6 13 -8
-5 -36 53 -29 59 33 25 124 86 129 86 13 0 32 -58 24 -72 -12 -19 -14 -39 -3
-32 5 3 7 9 4 14 -3 5 -1 11 3 14 11 7 34 -42 27 -55 -4 -5 -2 -9 3 -9 5 0 13
-10 19 -22 8 -19 6 -25 -11 -33 -16 -8 -21 -21 -22 -52 -1 -35 1 -40 18 -35
11 2 27 16 35 29 17 25 12 45 -32 154 -5 13 15 30 84 74 50 31 94 62 97 68 5
8 2 8 -7 0 -18 -18 -34 -16 -19 2 18 22 12 19 -60 -31z m50 12 c0 -6 -98 -66
-107 -66 -10 0 89 69 100 69 4 1 7 -1 7 -3z"/>
<path d="M1685 586 c-66 -32 -53 -33 16 -2 30 14 50 25 44 25 -5 1 -32 -10
-60 -23z"/>
<path d="M2138 593 c45 -2 119 -2 165 0 45 1 8 3 -83 3 -91 0 -128 -2 -82 -3z"/>
<path d="M1488 494 c-71 -35 -128 -66 -128 -69 0 -5 259 122 269 131 16 15
-31 -6 -141 -62z"/>
<path d="M2113 553 c37 -2 97 -2 135 0 37 2 6 3 -68 3 -74 0 -105 -1 -67 -3z"/>
<path d="M1273 489 c-53 -31 -68 -44 -36 -32 11 5 14 3 9 -6 -6 -8 2 -7 23 3
34 18 41 29 14 20 -15 -5 -15 -3 1 10 23 18 40 21 30 5 -4 -8 0 -8 15 0 25 14
28 23 4 14 -11 -4 -14 -3 -9 5 10 16 8 16 -51 -19z"/>
<path d="M796 453 c14 -31 32 -70 40 -86 15 -27 14 -30 -6 -44 -14 -10 -20
-23 -18 -41 4 -32 20 -38 43 -16 17 17 16 38 -1 93 -5 19 -4 22 6 16 9 -5 11
-4 6 4 -4 6 -11 9 -15 7 -4 -3 -15 10 -24 29 -16 33 -16 35 2 35 20 0 58 -37
48 -47 -4 -3 -2 -12 4 -19 6 -8 9 -20 6 -29 -4 -8 -2 -17 3 -20 13 -8 77 25
77 40 0 10 -6 11 -23 3 -13 -6 -21 -15 -17 -21 3 -5 0 -7 -8 -5 -8 3 -14 13
-15 24 -2 38 -27 71 -70 92 -24 12 -44 26 -44 32 0 5 -4 10 -9 10 -6 0 1 -26
15 -57z"/>
<path d="M2600 497 c0 -7 122 -48 127 -43 3 2 -20 12 -49 21 -29 10 -59 20
-65 23 -7 2 -13 2 -13 -1z"/>
<path d="M1067 444 c-16 -9 -25 -20 -21 -26 5 -7 2 -9 -8 -6 -8 4 -15 0 -15
-7 0 -11 9 -9 37 5 20 10 37 26 37 34 0 9 -1 16 -1 16 -1 -1 -14 -8 -29 -16z"/>
<path d="M1288 414 c-38 -19 -68 -37 -68 -39 0 -3 32 11 70 30 39 19 70 37 70
40 0 7 3 8 -72 -31z"/>
<path d="M2930 420 c30 -16 60 -29 65 -29 6 0 -15 13 -45 29 -30 16 -59 29
-65 29 -5 0 15 -13 45 -29z"/>
<path d="M150 395 c-7 -9 -14 -38 -14 -65 -1 -36 -7 -55 -24 -73 -30 -32 -41
-75 -29 -110 9 -28 52 -57 82 -57 13 0 16 -8 13 -37 -3 -32 -7 -38 -28 -41
-18 -2 -21 0 -12 6 18 12 11 47 -8 47 -9 0 -16 -11 -18 -27 -3 -29 22 -44 57
-33 27 8 29 28 14 110 -16 87 -16 85 7 57 15 -18 17 -28 10 -43 -6 -11 -7 -19
-1 -19 12 0 21 25 21 56 0 17 -9 30 -30 42 -36 20 -37 29 -8 83 17 33 19 48
12 77 -10 41 -25 50 -44 27z m18 -77 l-13 -23 -3 28 c-2 16 3 35 10 44 12 15
13 14 16 -5 2 -11 -3 -31 -10 -44z m-32 -120 c-20 -29 -20 -52 0 -69 13 -11
14 -9 9 14 -9 35 7 61 16 27 13 -48 10 -60 -15 -60 -27 0 -43 16 -46 45 -4 33
-1 41 22 71 19 23 23 25 26 11 2 -9 -4 -27 -12 -39z"/>
<path d="M1091 386 c-34 -18 -40 -24 -27 -29 11 -5 15 -3 10 5 -5 8 -2 9 10 5
11 -5 15 -3 10 5 -5 8 -2 9 10 5 11 -5 15 -3 10 5 -5 7 -2 9 8 6 9 -4 15 0 15
8 0 8 -1 14 -1 14 -1 -1 -21 -11 -45 -24z"/>
<path d="M1395 355 c-38 -18 -65 -33 -60 -33 6 -1 42 14 80 33 39 18 66 33 60
33 -5 1 -41 -14 -80 -33z"/>
<path d="M674 358 c4 -13 8 -27 9 -33 2 -5 6 -16 11 -23 4 -7 5 -16 2 -19 -3
-4 1 -14 9 -23 14 -15 13 -19 -5 -35 -11 -10 -20 -24 -20 -32 0 -18 35 -17 50
2 10 13 7 30 -20 100 -18 47 -35 85 -38 85 -2 0 -1 -10 2 -22z"/>
<path d="M783 358 c-13 -6 -23 -15 -23 -20 0 -5 -4 -6 -10 -3 -5 3 -17 2 -26
-3 -11 -6 -13 -11 -5 -16 6 -4 11 -3 11 3 0 6 6 8 14 5 7 -3 20 1 27 8 8 7 20
13 27 14 29 2 33 5 27 14 -7 12 -13 12 -42 -2z"/>
<path d="M1320 345 c-25 -13 -38 -24 -30 -25 9 0 5 -6 -10 -15 -14 -8 -20 -14
-15 -14 18 0 61 28 45 29 -8 1 5 12 30 25 25 13 41 24 35 24 -5 0 -30 -11 -55
-24z"/>
<path d="M952 323 c-6 -2 -9 -10 -5 -16 4 -6 0 -8 -10 -4 -21 8 -49 -2 -41
-14 3 -5 10 -9 15 -9 6 0 7 5 3 12 -5 8 -2 9 9 5 22 -8 49 2 40 16 -4 6 0 8
11 4 10 -4 15 -3 11 3 -7 11 -13 11 -33 3z"/>
<path d="M317 293 c-11 -10 -8 -61 3 -68 6 -3 10 -1 10 6 0 7 3 9 6 6 4 -4 1
-13 -5 -21 -9 -11 -9 -19 0 -34 18 -28 36 -17 31 18 -4 29 -3 30 36 30 23 0
44 5 47 10 7 12 -8 12 -57 1 -32 -8 -38 -6 -38 8 -1 20 -25 53 -33 44z"/>
<path d="M916 251 c-38 -13 -46 -19 -32 -24 24 -10 28 -9 20 4 -4 8 1 9 16 4
16 -5 20 -4 15 5 -5 9 -1 10 15 5 17 -5 21 -4 15 6 -6 9 -3 11 9 6 10 -4 15
-3 11 3 -8 12 -9 12 -69 -9z"/>
<path d="M1120 249 c11 -8 8 -9 -15 -5 -22 5 -26 4 -15 -4 12 -8 13 -10 1 -10
-8 0 -12 -2 -9 -5 2 -3 19 0 37 6 24 9 29 14 19 20 -19 13 -36 11 -18 -2z"/>
<path d="M527 243 c-4 -3 -7 -16 -7 -29 0 -12 -6 -25 -12 -27 -8 -3 -6 -6 5
-6 11 -1 17 -9 17 -26 l0 -25 -106 0 c-67 0 -103 -4 -99 -10 3 -6 51 -10 110
-10 73 0 105 -4 108 -12 4 -10 6 -10 6 0 1 6 8 12 16 12 8 0 15 5 15 10 0 6
-9 10 -20 10 -14 0 -20 7 -20 24 0 13 -3 31 -6 39 -3 9 3 16 15 20 26 6 28 37
3 37 -10 0 -22 -3 -25 -7z"/>
<path d="M232 223 c23 -4 27 -10 33 -53 4 -27 13 -57 20 -67 13 -17 14 -17 21
0 4 10 1 43 -5 73 l-12 54 -42 -1 c-29 -2 -33 -3 -15 -6z"/>
<path d="M845 220 c4 -7 -3 -9 -22 -5 -23 5 -25 4 -11 -5 10 -6 29 -8 44 -4
19 5 22 9 12 15 -18 12 -30 11 -23 -1z"/>
<path d="M400 210 c-11 -7 -7 -10 17 -10 17 0 35 5 38 10 8 13 -35 13 -55 0z"/>
<path d="M930 189 c11 -8 8 -9 -13 -4 -19 4 -26 2 -22 -4 4 -7 -6 -9 -27 -5
-28 4 -30 3 -15 -6 14 -9 31 -9 69 0 35 9 46 15 37 21 -8 5 -21 9 -29 9 -13 0
-13 -1 0 -11z"/>
<path d="M395 180 c-15 -6 -8 -9 27 -9 26 -1 50 4 53 9 8 12 -52 12 -80 0z"/>
<path d="M365 150 c-32 -6 -22 -7 47 -9 49 0 90 3 93 9 7 11 -77 11 -140 0z"/>
<path d="M605 130 c3 -5 22 -10 41 -10 21 0 33 4 29 10 -3 6 -22 10 -41 10
-21 0 -33 -4 -29 -10z"/>
</g>
</svg>
